<?xml version="1.0" encoding="UTF-8" standalone="no"?>
<svg
   xmlns:dc="http://purl.org/dc/elements/1.1/"
   xmlns:cc="http://creativecommons.org/ns#"
   xmlns:rdf="http://www.w3.org/1999/02/22-rdf-syntax-ns#"
   xmlns:svg="http://www.w3.org/2000/svg"
   xmlns="http://www.w3.org/2000/svg"
   xmlns:sodipodi="http://sodipodi.sourceforge.net/DTD/sodipodi-0.dtd"
   xmlns:inkscape="http://www.inkscape.org/namespaces/inkscape"
   width="40.000343"
   height="39.993301"
   viewBox="0 0 40.000343 39.993301"
   fill="none"
   version="1.1"
   id="svg12"
   sodipodi:docname="kobra-icon.svg"
   inkscape:version="1.0.2 (1.0.2+r75+1)">
  <sodipodi:namedview
     pagecolor="#ffffff"
     bordercolor="#666666"
     borderopacity="1"
     objecttolerance="10"
     gridtolerance="10"
     guidetolerance="10"
     inkscape:pageopacity="0"
     inkscape:pageshadow="2"
     inkscape:window-width="1920"
     inkscape:window-height="1019"
     id="namedview9"
     showgrid="false"
     inkscape:zoom="256"
     inkscape:cx="1.3023292"
     inkscape:cy="38.558868"
     inkscape:window-x="0"
     inkscape:window-y="34"
     inkscape:window-maximized="1"
     inkscape:current-layer="svg12" />
  <metadata
     id="metadata18">
    <rdf:RDF>
      <cc:Work
         rdf:about="">
        <dc:format>image/svg+xml</dc:format>
        <dc:type
           rdf:resource="http://purl.org/dc/dcmitype/StillImage" />
        <dc:title />
      </cc:Work>
    </rdf:RDF>
  </metadata>
  <defs
     id="defs16" />
  <path
     d="m 21.6806,39.9882 c -0.5796,0 -1.1638,0 -1.7434,0 -0.0598,-0.0138 -0.115,-0.0138 -0.1748,-0.0138 -1.9183,-0.0092 -3.8411,-0.0138 -5.7594,-0.023 -2.0056,-0.0092 -4.01127,-0.0138 -6.01232,-0.023 -1.95965,-0.0046 -3.9193,-0.0092 -5.88355,-0.0138 -0.52441,0 -1.05342,-0.0046 -1.577834,-0.0092 -0.092003,0 -0.184005,0 -0.271407,-0.0276 C 0.170487,39.8502 0.101485,39.8042 0.0738845,39.7168 0.0416837,39.611 0.00488281,39.5098 0.00488281,39.3948 0.014083,39.1464 0.0186832,38.8979 0.0232833,38.6449 c 0.0046001,-0.2254 0.0092002,-0.4508 0.0138003,-0.6716 0,-0.1334 0.0138003,-0.2622 0,-0.3956 0.0138003,-0.0506 0.0092002,-0.1012 0.0092002,-0.1518 0.0138004,-2.9441 0.0184005,-5.8881 0.041401,-8.8322 0.0138002,-1.6009 -0.0092002,-3.2017 -0.0092002,-4.8025 0,-1.6515 0.0092003,-3.3029 0.0552014,-4.9544 0.0138,-0.5566 0.036801,-1.1086 0.087402,-1.6652 0.050601,-0.529 0.124203,-1.058 0.220806,-1.5824 C 0.736301,13.9699 1.25151,12.4243 1.97833,10.9477 2.90755,9.0662 4.12198,7.3826 5.57102,5.8691 7.69167,3.6565 10.2033,2.0648 13.106,1.085 c 1.0442,-0.3542 2.1069,-0.6164 3.1925,-0.8142 0.5152,-0.092 1.0304,-0.1656 1.5502,-0.207 0.2438,-0.0184 0.4922,-0.0322 0.736,-0.0506 0.2806,0 0.5613,0 0.8373,0 0.2116,0.0138 0.4232,0.0276 0.6394,0.046 0.529,0.0414 1.0488,0.1242 1.564,0.253 4.1723,1.0258 7.1578,4.7749 7.0198,9.3888 -0.0046,0.1104 -0.0092,0.2208 -0.0322,0.3266 -0.046,0.1886 -0.1242,0.2668 -0.3174,0.3036 -0.1794,0.0322 -0.3588,0.023 -0.5382,0.023 -2.3829,-0.0092 -4.7658,-0.0184 -7.1532,-0.023 -0.6026,0 -1.2052,-0.023 -1.8079,0.0138 -0.414,0.0276 -0.828,0.0782 -1.2328,0.1656 -1.9274,0.4049 -3.5651,1.3295 -4.8807,2.7969 -1.5042,1.6791 -2.2449,3.6709 -2.3185,5.9112 -0.0276,0.8326 -0.0138,1.6652 -0.0184,2.4932 -0.0092,2.4749 -0.0138,4.9543 -0.0414,7.4292 0,0.0966 0,0.1978 0.023,0.2944 0.0322,0.1242 0.115,0.2024 0.2392,0.2346 0.0736,0.0184 0.1518,0.023 0.23,0.023 1.4169,0 2.8337,0.0046 4.2506,0.0138 1.4582,0.0092 2.921,0.0092 4.3793,0.0184 0.6256,0.0046 1.2512,0.023 1.8768,-0.0276 0.5152,-0.0414 1.0212,-0.1196 1.5226,-0.2438 3.4547,-0.8464 5.6444,-3.4179 6.5138,-6.1871 0.2944,-0.9339 0.391,-1.8999 0.3818,-2.8751 -0.0046,-0.8832 -0.0138,-1.7665 -0.0046,-2.6451 0.0046,-0.4324 0.0138,-0.8648 -0.0046,-1.3018 -0.0138,-0.4094 0.023,-0.8234 -0.023,-1.2328 -0.0092,-0.069 -0.0184,-0.138 -0.0138,-0.207 0.0092,-0.4279 -0.0184,-0.8511 0.0092,-1.2789 0.0184,-0.2806 0.0414,-0.5658 0.0368,-0.8464 0,-0.1794 0.0092,-0.3588 -0.0046,-0.5382 -0.0276,-0.3726 -0.0138,-0.7498 -0.0092,-1.1224 0.0046,-0.207 0.0184,-0.4094 0.023,-0.6165 0.0046,-0.3772 0.0092,-0.7498 0.0092,-1.127 0,-0.6992 0.069,-1.3892 0.2162,-2.07 0.3542,-1.6239 1.081,-3.0591 2.2035,-4.2873 1.2098,-1.3249 2.691,-2.2081 4.4207,-2.6773 0.6164,-0.1656 1.242,-0.2714 1.8768,-0.3082 0.345,-0.0184 0.69,-0.0184 1.0351,-0.023 0.092,0 0.184,-0.0138 0.276,0 0.1518,0.0184 0.2254,0.092 0.23,0.2438 0.0046,0.138 0,0.2806 0,0.4186 -0.0046,2.4289 0,4.8577 -0.0138,7.2866 -0.0138,1.9964 -0.0138,3.9883 -0.023,5.9847 -0.0092,2.1989 -0.023,4.3931 -0.0368,6.592 -0.0046,0.667 -0.0184,1.3294 -0.0782,1.9964 -0.0506,0.5843 -0.1242,1.1639 -0.23,1.7389 -0.276,1.4996 -0.7361,2.9441 -1.3801,4.3287 -0.6946,1.495 -1.5778,2.8751 -2.6036,4.1631 -1.9919,2.4979 -4.453,4.3793 -7.4016,5.6121 -1.2375,0.5152 -2.5163,0.9017 -3.8319,1.1731 -0.5198,0.1058 -1.0396,0.1932 -1.5687,0.2484 -0.3496,0.0368 -0.7038,0.0644 -1.0534,0.0828 -0.0322,-0.0138 -0.069,-0.0276 -0.0966,0.0092 z M 19.2472,6.2463 c 0,0.1012 0.0046,0.1978 0.0184,0.2944 0.184,1.2375 1.5272,2.1345 2.8336,1.5595 0.897,-0.391 1.3801,-1.3386 1.1731,-2.2679 -0.2255,-1.012 -1.1961,-1.7756 -2.3415,-1.5732 -0.9936,0.1702 -1.6974,1.0488 -1.6836,1.9872 z"
     fill="#00d777"
     id="path4" />
  <path
     d="m 18.5895,0.0184 c 0,-0.0046 0,-0.0092 0,-0.0184 0.2806,0 0.5612,0 0.8372,0 0,0.0046 0,0.0092 0,0.0184 -0.2806,0 -0.5612,0 -0.8372,0 z"
     fill="#f8fdfc"
     id="path8" />
  <path
     d="m 19.247,6.247 c -0.0138,-0.9385 0.69,-1.8125 1.6883,-1.9873 1.1454,-0.1978 2.1206,0.5612 2.3414,1.5732 0.2024,0.9293 -0.2806,1.8769 -1.173,2.2679 C 20.7927,8.6758 19.454,7.7788 19.27,6.5414 19.2516,6.4448 19.247,6.3436 19.247,6.247 Z"
     fill="#f8fdfc"
     id="path10" />
</svg>
