<?xml version="1.0" encoding="UTF-8" standalone="no"?>
<svg
   xmlns:dc="http://purl.org/dc/elements/1.1/"
   xmlns:cc="http://creativecommons.org/ns#"
   xmlns:rdf="http://www.w3.org/1999/02/22-rdf-syntax-ns#"
   xmlns:svg="http://www.w3.org/2000/svg"
   xmlns="http://www.w3.org/2000/svg"
   xmlns:sodipodi="http://sodipodi.sourceforge.net/DTD/sodipodi-0.dtd"
   xmlns:inkscape="http://www.inkscape.org/namespaces/inkscape"
   sodipodi:docname="logo.svg"
   inkscape:version="1.0 (1.0+r73+1)"
   id="svg8"
   version="1.1"
   viewBox="0 0 66.6987 101.79953"
   height="101.79953mm"
   width="66.6987mm">
  <defs
     id="defs2" />
  <sodipodi:namedview
     inkscape:window-maximized="1"
     inkscape:window-y="34"
     inkscape:window-x="1200"
     inkscape:window-height="1019"
     inkscape:window-width="1920"
     fit-margin-bottom="0"
     fit-margin-right="0"
     fit-margin-left="0"
     fit-margin-top="0"
     showgrid="false"
     inkscape:document-rotation="0"
     inkscape:current-layer="layer1"
     inkscape:document-units="mm"
     inkscape:cy="172.14065"
     inkscape:cx="124.88063"
     inkscape:zoom="0.7"
     inkscape:pageshadow="2"
     inkscape:pageopacity="0.0"
     borderopacity="1.0"
     bordercolor="#666666"
     pagecolor="#ffffff"
     id="base" />
  <metadata
     id="metadata5">
    <rdf:RDF>
      <cc:Work
         rdf:about="">
        <dc:format>image/svg+xml</dc:format>
        <dc:type
           rdf:resource="http://purl.org/dc/dcmitype/StillImage" />
        <dc:title></dc:title>
      </cc:Work>
    </rdf:RDF>
  </metadata>
  <g
     transform="translate(-76.46005,-33.75467)"
     id="layer1"
     inkscape:groupmode="layer"
     inkscape:label="Layer 1">
    <g
       style="fill:#00d777;fill-opacity:1"
       transform="translate(185.18261,29.700921)"
       id="g3201">
      <path
         id="path3203"
         d="m -87.455884,105.44088 c -0.263552,-0.31756 -0.26244,-1.09959 0.0055,-3.88759 0.373155,-3.882576 0.224777,-8.338728 -0.393827,-11.827643 -0.385614,-2.174846 -0.429297,-2.259367 -2.053093,-3.972346 -5.342993,-5.636446 -9.647658,-11.746268 -12.986416,-18.432257 -2.0161,-4.037331 -2.64111,-5.650834 -3.86881,-9.987688 -1.56791,-5.538653 -1.95075,-8.093645 -1.96937,-13.142874 -0.0182,-4.942245 0.33344,-7.254905 1.85068,-12.170834 4.31682,-13.986676 18.86478,-25.9361604 33.835662,-27.7921168 7.476959,-0.9269266 15.105993,1.8908804 20.510253,7.5755228 3.112982,3.274489 3.675015,4.910633 2.539135,7.391725 -0.380653,0.831452 -0.692094,1.542569 -0.692094,1.580261 0,0.03769 0.668459,0.573222 1.485466,1.190067 1.335468,1.008289 1.702821,1.147222 3.638021,1.375895 2.308593,0.272796 3.200299,0.667908 3.477345,1.540801 0.381637,1.202426 -1.351807,2.43176 -2.786751,1.976327 -0.801973,-0.254537 -1.316165,0.321606 -1.316165,1.474745 0,0.744733 -0.154842,1.119388 -0.588039,1.422812 -1.32633,0.928998 -2.063088,0.263377 -2.589699,-2.339648 -0.3326,-1.64403 -0.850988,-2.300877 -2.986059,-3.783612 l -1.004422,-0.697537 -1.50912,0.45558 c -2.376802,0.71752 -2.612861,0.911444 -3.70641,3.044825 -0.567365,1.106863 -1.630905,3.106591 -2.36342,4.443837 -2.796151,5.104538 -4.89602,10.794808 -5.376688,14.569878 -0.408401,3.207485 -0.135004,6.97452 1.070409,14.748765 1.193493,7.697375 1.48754,10.505398 1.85633,17.727084 0.308988,6.050627 0.317127,6.125232 1.327576,12.170834 1.19579,7.154509 1.34393,13.297187 0.344776,14.296347 -0.691174,0.69117 -1.850922,0.48476 -2.385796,-0.42462 -0.384974,-0.65453 -0.606687,-0.78517 -1.139439,-0.67141 -0.363802,0.0777 -1.494896,0.32277 -2.513542,0.54465 -2.109287,0.45942 -8.170318,0.83977 -9.212765,0.57814 -0.980909,-0.2462 -1.367632,-1.06893 -0.962356,-2.04735 0.37529,-0.90603 0.369218,-0.90449 5.044168,-1.27859 4.016417,-0.3214 8.128553,-1.122054 8.490313,-1.653102 0.274174,-0.402476 0.01323,-4.47204 -0.308042,-4.80395 -0.11839,-0.122311 -1.329618,-0.03543 -2.691619,0.19307 -3.823484,0.641458 -7.903573,0.954894 -12.433301,0.955135 l -4.136102,2.22e-4 -0.184869,1.972834 c -0.258231,2.755701 -0.157462,2.958271 1.579538,3.175301 1.739133,0.21729 2.578055,0.82212 2.578055,1.85868 0,1.09691 -0.682331,1.45985 -2.744533,1.45985 -1.679673,0 -1.816399,0.0462 -2.348696,0.79375 -0.631013,0.88618 -1.812102,1.08266 -2.381787,0.39623 z m 15.610955,-13.21781 c 3.129994,-0.423436 6.294591,-1.057733 6.549636,-1.312775 0.205129,-0.205131 -0.311499,-3.351197 -0.788289,-4.800362 l -0.342606,-1.041324 -1.779644,0.09307 c -1.743675,0.09119 -1.785379,0.07797 -2.06366,-0.653958 -0.372525,-0.979818 0.03249,-1.87902 1.000998,-2.222389 1.753929,-0.621826 1.792227,-0.831003 0.677239,-3.699013 -0.887648,-2.283235 -1.049237,-2.391518 -2.924565,-1.959813 -3.081216,0.709303 -7.914918,1.18727 -11.513341,1.138459 -2.003984,-0.02718 -3.712359,0.01934 -3.79639,0.103365 -0.220168,0.220168 0.712978,4.495644 1.061603,4.86404 0.161137,0.170275 1.278186,0.426032 2.482332,0.568346 2.462369,0.29102 2.970019,0.575082 2.970019,1.661901 0,1.137362 -0.982265,1.670394 -2.743253,1.488644 -2.025055,-0.209005 -2.069081,-0.14664 -1.743829,2.470073 0.399569,3.2146 0.450067,3.373311 1.114081,3.501234 1.437661,0.276971 9.296515,0.14455 11.839669,-0.199496 z m -5.40506,-6.37961 c -0.571479,-0.571479 -0.521176,-1.523489 0.110712,-2.095341 0.778746,-0.704755 3.04741,-0.863793 3.714184,-0.260371 0.709203,0.641821 0.675582,1.840039 -0.06621,2.35961 -0.789919,0.55328 -3.204012,0.550778 -3.758687,-0.0039 z m -13.244476,-9.02893 c -5.254477,-21.737084 -5.917656,-35.484361 -2.242111,-46.477601 1.543124,-4.615344 2.459077,-6.306307 4.610902,-8.512272 2.040792,-2.092143 3.261439,-2.827048 5.76394,-3.470251 1.903386,-0.489215 5.548805,-0.368494 7.738679,0.256275 8.186635,2.335637 8.136126,2.324904 11.686001,2.483162 5.219896,0.232709 8.780199,-0.701743 9.739168,-2.556181 0.808426,-1.563328 0.373433,-2.701293 -1.784961,-4.669553 -5.221733,-4.7617431 -8.86998,-6.2584827 -15.274582,-6.2665903 -5.200598,-0.00658 -8.686968,0.8277474 -13.493751,3.2292203 -5.624497,2.810003 -10.03671,6.292889 -13.938198,11.00245 -3.955042,4.7742 -6.815782,11.31591 -7.613492,17.409907 -0.51081,3.902245 -0.51132,5.318816 -0.003,9.453203 0.67564,5.49936 2.4768,11.524037 5.02054,16.793143 1.416297,2.933729 4.635744,8.319257 5.931255,9.921875 0.529357,0.654844 1.589032,2.04564 2.354834,3.090657 2.262117,3.086896 2.57456,2.736606 1.505141,-1.687444 z M -101.04786,57.10447 c -0.51191,-0.789821 -1.06288,-3.00272 -0.87168,-3.50098 0.0815,-0.212487 0.45231,-0.585566 0.82393,-0.829062 0.62177,-0.4074 0.72729,-0.408905 1.322521,-0.01889 0.409322,0.268198 0.818219,0.967502 1.113558,1.904418 0.418618,1.328015 0.42609,1.553313 0.07251,2.186289 -0.544219,0.974249 -1.904259,1.116965 -2.460839,0.258228 z m -1.19874,-6.665654 c -0.32882,-0.396205 -1.0828,-4.28942 -1.08339,-5.594149 -7.9e-4,-1.594213 1.36114,-2.59174 2.39482,-1.754148 0.43073,0.349022 0.62469,1.047456 0.950521,3.422674 0.37502,2.73386 0.373422,3.039015 -0.01905,3.638021 -0.48298,0.737119 -1.73643,0.897848 -2.24289,0.287602 z m 35.21029,-33.583618 c -1.708287,-1.818391 0.937962,-4.440273 2.887904,-2.861307 0.4425,0.358315 0.611394,0.769726 0.611394,1.489297 0,1.826709 -2.245149,2.706991 -3.499298,1.37201 z m -7.250211,57.233933 c 2.185589,-0.372497 2.970758,-0.690224 2.970758,-1.202148 0,-0.23142 -0.408972,-1.30593 -0.908825,-2.387799 -0.818645,-1.771848 -0.983456,-1.967034 -1.660922,-1.967034 -1.73555,0 -2.637859,-1.85416 -1.343496,-2.760766 0.553331,-0.387567 0.566637,-0.476956 0.248216,-1.667489 -0.185049,-0.691883 -0.567301,-1.779833 -0.849445,-2.41767 l -0.51299,-1.159698 -1.256583,0.162772 c -3.165364,0.410025 -9.097013,0.71928 -10.713509,0.558567 -1.509337,-0.150061 -1.80944,-0.111101 -1.949172,0.253037 -0.220774,0.575329 0.317571,4.118343 0.680984,4.481756 0.158131,0.158131 1.297597,0.366054 2.532145,0.462048 2.471918,0.192209 3.033596,0.477363 3.033596,1.540105 0,1.353058 -0.5379,1.711751 -2.60445,1.736751 -1.028933,0.01244 -1.935562,0.0874 -2.01473,0.166574 -0.223785,0.223782 0.685599,3.757417 1.075878,4.180605 0.700656,0.759732 8.860965,0.772271 13.272545,0.0204 z m -6.289659,-4.686428 c -0.737119,-0.270893 -1.322917,-0.949282 -1.322917,-1.532011 0,-0.777875 0.713944,-1.371074 1.919396,-1.594779 1.909774,-0.354409 3.049808,1.255784 1.784771,2.52082 -0.291042,0.291042 -0.698024,0.529167 -0.904401,0.529167 -0.206381,0 -0.533803,0.0501 -0.727605,0.111329 -0.193804,0.06123 -0.530963,0.0457 -0.749244,-0.03453 z m 13.758334,3.411416 c 0,-0.832106 -1.300535,-10.949861 -2.114841,-16.452803 -0.656844,-4.438828 -0.709306,-10.271536 -0.118131,-13.133595 0.916064,-4.434954 1.738183,-6.640216 4.641072,-12.449271 1.613726,-3.229275 2.867176,-5.979604 2.785449,-6.111844 -0.08173,-0.132239 -1.172792,-0.319161 -2.424586,-0.415382 -1.251792,-0.09622 -2.819522,-0.296755 -3.483843,-0.445632 -1.46308,-0.327883 -1.595152,-0.231743 -3.533492,2.572167 -3.613177,5.226644 -5.337189,12.735686 -4.764345,20.751403 0.329975,4.617318 0.795589,6.840188 2.51573,12.010279 1.08295,3.254934 5.076601,12.918729 5.877105,14.221355 0.277173,0.451033 0.619882,0.148797 0.619882,-0.546677 z M -80.122962,57.725915 c 1.195155,-0.09945 2.314149,-0.321966 2.486655,-0.494472 0.241808,-0.241808 0.198604,-0.786439 -0.188632,-2.377826 l -0.502283,-2.064176 -1.26928,-0.08115 c -1.048382,-0.06703 -1.320543,-0.193659 -1.563825,-0.727604 -0.407294,-0.893919 0.08425,-1.902826 1.038169,-2.130844 1.31825,-0.315108 1.445903,-0.564615 1.260655,-2.464017 -0.09334,-0.957072 -0.218247,-1.918726 -0.277563,-2.137008 -0.09222,-0.33937 -1.018813,-0.393869 -6.394877,-0.376137 l -6.287029,0.02074 0.02856,2.177402 c 0.01569,1.19757 0.158758,2.307606 0.317894,2.466742 0.159139,0.159139 1.63457,0.393139 3.278738,0.520001 3.773276,0.291145 4.18002,0.452533 4.18002,1.658568 0,1.35464 -0.5637,1.546815 -4.204808,1.433486 l -3.071234,-0.0956 -0.07755,1.606439 c -0.100902,2.090283 0.230195,2.953356 1.188291,3.09752 1.216583,0.183057 7.722138,0.162316 10.058099,-0.03207 z m -0.337415,-16.141264 c 1.205992,-0.161396 1.324057,-0.242872 1.535753,-1.059836 0.126129,-0.486749 0.193079,-1.319615 0.14878,-1.850811 l -0.08054,-0.965814 -2.193163,-0.132292 c -2.293107,-0.138321 -2.689358,-0.355769 -2.697578,-1.480346 -0.0077,-1.051232 0.855302,-1.476214 3.30844,-1.62926 1.945275,-0.121361 2.333342,-0.224533 2.629974,-0.699196 0.452239,-0.723656 1.030888,-3.237037 0.852363,-3.702264 -0.102912,-0.268187 -0.978363,-0.393536 -3.400565,-0.486905 -2.149015,-0.08284 -4.069207,-0.330658 -5.627905,-0.726334 l -2.365933,-0.600599 -0.458277,0.565946 c -0.557684,0.688711 -1.653927,3.889725 -1.446851,4.224783 0.08187,0.132469 0.577496,0.321267 1.10139,0.41955 2.134833,0.400497 2.897092,1.297268 2.270889,2.671627 -0.366977,0.805429 -1.1988,1.013749 -2.697057,0.67545 -1.578012,-0.356309 -1.800156,-0.08888 -2.012463,2.422708 -0.146703,1.735494 -0.108826,2.060524 0.256469,2.200701 1.260282,0.483613 7.725879,0.574505 10.876278,0.152892 z m 5.618427,-15.513707 c 0.642668,-0.450143 1.938687,-2.550322 1.938687,-3.141616 0,-0.756958 -5.043927,-1.89496 -7.449958,-1.680845 -2.952255,0.262723 -7.892471,3.666845 -6.241119,4.300528 2.354932,0.903672 10.679555,1.273376 11.75239,0.521933 z"
         style="fill:#00d777;fill-opacity:1;stroke-width:0.264583" />
    </g>
  </g>
</svg>
