<?xml version="1.0" encoding="UTF-8" standalone="no"?>
<svg
   xmlns:dc="http://purl.org/dc/elements/1.1/"
   xmlns:cc="http://creativecommons.org/ns#"
   xmlns:rdf="http://www.w3.org/1999/02/22-rdf-syntax-ns#"
   xmlns:svg="http://www.w3.org/2000/svg"
   xmlns="http://www.w3.org/2000/svg"
   width="169.894"
   height="39.9935"
   viewBox="0 0 169.894 39.9935"
   fill="none"
   version="1.1"
   id="svg12">
  <metadata
     id="metadata18">
    <rdf:RDF>
      <cc:Work
         rdf:about="">
        <dc:format>image/svg+xml</dc:format>
        <dc:type
           rdf:resource="http://purl.org/dc/dcmitype/StillImage" />
        <dc:title></dc:title>
      </cc:Work>
    </rdf:RDF>
  </metadata>
  <defs
     id="defs16" />
  <path
     d="M 80.2,39 H 72.5 L 56.7,21.55 V 39 H 51.5 V 4 h 5.2 V 19.55 L 70.6,4 h 7.2 L 62.6,20.05 Z m 1.3805,-20.35 c 2.4,-2.3333 5.4166,-3.5 9.05,-3.5 3.6333,0 6.65,1.1667 9.05,3.5 2.3995,2.3333 3.5995,5.2667 3.5995,8.8 0,3.5333 -1.2,6.4667 -3.5995,8.8 -2.4,2.3333 -5.4167,3.5 -9.05,3.5 -3.6334,0 -6.65,-1.1667 -9.05,-3.5 -2.4,-2.3333 -3.6,-5.2667 -3.6,-8.8 0,-3.5333 1.2,-6.4667 3.6,-8.8 z m 14.4,3.35 c -1.3667,-1.3667 -3.15,-2.05 -5.35,-2.05 -2.2,0 -4,0.6833 -5.4,2.05 -1.3667,1.3667 -2.05,3.1833 -2.05,5.45 0,2.2667 0.6833,4.0833 2.05,5.45 1.4,1.3667 3.2,2.05 5.4,2.05 2.2,0 3.9833,-0.6833 5.35,-2.05 1.4,-1.3667 2.1,-3.1833 2.1,-5.45 0,-2.2667 -0.7,-4.0833 -2.1,-5.45 z m 23.3705,17.75 c -3.6,0 -6.2,-1.3833 -7.8,-4.15 h -0.1 V 39 h -4.9 V 4 h 4.9 v 15.3 h 0.1 c 1.6,-2.7667 4.2,-4.15 7.8,-4.15 3.166,0 5.833,1.1167 8,3.35 2.166,2.2333 3.25,5.2167 3.25,8.95 0,3.7333 -1.084,6.7167 -3.25,8.95 -2.167,2.2333 -4.834,3.35 -8,3.35 z m -6.2,-6.85 c 1.3,1.3667 3.016,2.05 5.15,2.05 2.133,0 3.85,-0.6833 5.15,-2.05 1.3,-1.4 1.95,-3.2167 1.95,-5.45 0,-2.2333 -0.65,-4.0333 -1.95,-5.4 -1.3,-1.4 -3.017,-2.1 -5.15,-2.1 -2.134,0 -3.85,0.7 -5.15,2.1 -1.3,1.3667 -1.95,3.1667 -1.95,5.4 0,2.2333 0.65,4.05 1.95,5.45 z m 33.458,-17.7 v 5.75 h -0.75 c -2.433,0 -4.266,0.6333 -5.5,1.9 -1.233,1.2333 -1.85,3.2 -1.85,5.9 V 39 h -4.9 V 15.9 h 4.9 v 5.05 h 0.1 c 0.567,-1.7667 1.5,-3.1667 2.8,-4.2 1.334,-1.0333 2.95,-1.55 4.85,-1.55 z m 10.485,24.55 c -3.167,0 -5.834,-1.1167 -8,-3.35 -2.167,-2.2333 -3.25,-5.2167 -3.25,-8.95 0,-3.7333 1.083,-6.7167 3.25,-8.95 2.166,-2.2333 4.833,-3.35 8,-3.35 3.6,0 6.2,1.3833 7.8,4.15 h 0.1 v -3.4 h 4.9 V 39 h -4.9 v -3.4 h -0.1 c -1.6,2.7667 -4.2,4.15 -7.8,4.15 z m -4.1,-6.85 c 1.3,1.3667 3.016,2.05 5.15,2.05 2.133,0 3.85,-0.6833 5.15,-2.05 1.3,-1.4 1.95,-3.2167 1.95,-5.45 0,-2.2333 -0.65,-4.0333 -1.95,-5.4 -1.3,-1.4 -3.017,-2.1 -5.15,-2.1 -2.134,0 -3.85,0.7 -5.15,2.1 -1.3,1.3667 -1.95,3.1667 -1.95,5.4 0,2.2333 0.65,4.05 1.95,5.45 z"
     fill="#ffffff"
     id="path2"
     style="fill:#ffffff" />
  <path
     id="path4"
     d="M 18.583984 0.013671875 C 18.340184 0.032071875 18.093409 0.046053125 17.849609 0.064453125 C 17.329809 0.10585313 16.814028 0.17948437 16.298828 0.27148438 C 15.213228 0.46928438 14.149669 0.7317375 13.105469 1.0859375 C 10.202769 2.0657375 7.6909625 3.6565406 5.5703125 5.8691406 C 4.1212725 7.3826406 2.9077356 9.0657656 1.9785156 10.947266 C 1.2516956 12.423866 0.73581325 13.970544 0.44140625 15.589844 C 0.34480325 16.114244 0.27130413 16.642875 0.22070312 17.171875 C 0.17010212 17.728475 0.1466125 18.279338 0.1328125 18.835938 C 0.0868114 20.487437 0.078125 22.139516 0.078125 23.791016 C 0.078125 25.391816 0.10169082 26.99285 0.087890625 28.59375 C 0.064890125 31.53785 0.0606754 34.481681 0.046875 37.425781 C 0.046875 37.476381 0.050909675 37.527525 0.037109375 37.578125 C 0.050909675 37.711525 0.037109375 37.839256 0.037109375 37.972656 C 0.032509275 38.193456 0.0280376 38.419131 0.0234375 38.644531 C 0.0188374 38.897531 0.01310644 39.146131 0.00390625 39.394531 C 0.00390625 39.509531 0.04201795 39.610997 0.07421875 39.716797 C 0.10181925 39.804197 0.1704105 39.849353 0.2578125 39.876953 C 0.3452145 39.904553 0.43729387 39.90625 0.52929688 39.90625 C 1.0537109 39.91085 1.5830119 39.914062 2.1074219 39.914062 C 4.0716719 39.918663 6.0305844 39.923134 7.9902344 39.927734 C 9.9912844 39.936934 11.998306 39.941972 14.003906 39.951172 C 15.922206 39.960372 17.843419 39.965409 19.761719 39.974609 C 19.821519 39.974609 19.8777 39.974481 19.9375 39.988281 L 21.679688 39.988281 C 21.707288 39.951481 21.745144 39.964716 21.777344 39.978516 C 22.126944 39.960116 22.480478 39.933284 22.830078 39.896484 C 23.359178 39.841284 23.878637 39.754238 24.398438 39.648438 C 25.714037 39.377037 26.992969 38.989809 28.230469 38.474609 C 31.179069 37.241809 33.640912 35.361181 35.632812 32.863281 C 36.658613 31.575281 37.541728 30.194219 38.236328 28.699219 C 38.880328 27.314619 39.341088 25.870694 39.617188 24.371094 C 39.722987 23.796094 39.795103 23.217112 39.845703 22.632812 C 39.905503 21.965813 39.919228 21.301766 39.923828 20.634766 C 39.937628 18.435866 39.951738 16.241869 39.960938 14.042969 C 39.970137 12.046569 39.970575 10.054994 39.984375 8.0585938 C 39.998175 5.6296938 39.993447 3.2003844 39.998047 0.77148438 C 39.998047 0.63348438 40.002647 0.49151563 39.998047 0.35351562 C 39.993447 0.20171563 39.919378 0.127775 39.767578 0.109375 C 39.675578 0.095575 39.584187 0.109375 39.492188 0.109375 C 39.147087 0.113975 38.802031 0.1144125 38.457031 0.1328125 C 37.822231 0.1696125 37.196478 0.27580625 36.580078 0.44140625 C 34.850378 0.91060625 33.369956 1.7942406 32.160156 3.1191406 C 31.037656 4.3473406 30.311231 5.78235 29.957031 7.40625 C 29.809831 8.08705 29.740234 8.7773625 29.740234 9.4765625 C 29.740234 9.8537625 29.735069 10.226316 29.730469 10.603516 C 29.725869 10.810616 29.711631 11.01175 29.707031 11.21875 C 29.702431 11.59135 29.689197 11.969197 29.716797 12.341797 C 29.730597 12.521197 29.720703 12.699506 29.720703 12.878906 C 29.725303 13.159506 29.703947 13.445963 29.685547 13.726562 C 29.657947 14.154362 29.684981 14.577959 29.675781 15.005859 C 29.671181 15.074859 29.680253 15.143891 29.689453 15.212891 C 29.735453 15.622291 29.699091 16.035912 29.712891 16.445312 C 29.731291 16.882313 29.721397 17.313694 29.716797 17.746094 C 29.707597 18.624694 29.716103 19.509378 29.720703 20.392578 C 29.729903 21.367778 29.634244 22.333678 29.339844 23.267578 C 28.470444 26.036778 26.280872 28.606725 22.826172 29.453125 C 22.324772 29.577325 21.817934 29.655866 21.302734 29.697266 C 20.677134 29.747866 20.051381 29.729209 19.425781 29.724609 C 17.967481 29.715409 16.505075 29.716231 15.046875 29.707031 C 13.629975 29.697831 12.213775 29.693359 10.796875 29.693359 C 10.718675 29.693359 10.640006 29.688322 10.566406 29.669922 C 10.442206 29.637722 10.360325 29.559747 10.328125 29.435547 C 10.305125 29.338947 10.304688 29.237225 10.304688 29.140625 C 10.332287 26.665725 10.336503 24.185837 10.345703 21.710938 C 10.350303 20.882937 10.337634 20.05135 10.365234 19.21875 C 10.438834 16.97845 11.179394 14.985741 12.683594 13.306641 C 13.999194 11.839241 15.637053 10.914666 17.564453 10.509766 C 17.969253 10.422366 18.382875 10.373303 18.796875 10.345703 C 19.399575 10.308903 20.000916 10.332031 20.603516 10.332031 C 22.990916 10.336631 25.374913 10.344316 27.757812 10.353516 C 27.937212 10.353516 28.115522 10.364231 28.294922 10.332031 C 28.488122 10.295231 28.567281 10.215944 28.613281 10.027344 C 28.636281 9.9215438 28.639931 9.8115719 28.644531 9.7011719 C 28.782531 5.0872719 25.7973 1.3383 21.625 0.3125 C 21.1098 0.1837 20.589547 0.09999375 20.060547 0.05859375 C 19.844347 0.04019375 19.633475 0.027471875 19.421875 0.013671875 L 18.583984 0.013671875 z M 21.351562 4.2265625 C 21.49034 4.230104 21.624235 4.2489602 21.753906 4.2792969 C 21.754517 4.2794397 21.755249 4.2791535 21.755859 4.2792969 C 21.883147 4.309204 22.004829 4.3513736 22.121094 4.4042969 C 22.1549 4.4195027 22.184035 4.4420025 22.216797 4.4589844 C 22.295091 4.5000242 22.375509 4.5392167 22.447266 4.5898438 C 22.86441 4.8813192 23.166505 5.32402 23.277344 5.8320312 C 23.403721 6.4122186 23.260789 7.0004876 22.919922 7.4550781 C 22.919591 7.455519 22.920253 7.4565907 22.919922 7.4570312 C 22.71497 7.7298953 22.438166 7.9549375 22.103516 8.1015625 C 21.939641 8.1734375 21.775713 8.221915 21.613281 8.25 C 21.450621 8.278479 21.289604 8.2846071 21.132812 8.2734375 C 20.975831 8.2621082 20.823941 8.232092 20.677734 8.1855469 C 20.532578 8.1394926 20.393754 8.0763545 20.263672 8 C 20.263219 7.9997334 20.262171 8.0002669 20.261719 8 C 19.739619 7.6929375 19.357625 7.1597656 19.265625 6.5410156 C 19.256395 6.4764031 19.256281 6.409739 19.253906 6.34375 C 19.252563 6.3110872 19.246094 6.2780818 19.246094 6.2460938 C 19.244369 6.1287937 19.255517 6.0124852 19.275391 5.8984375 C 19.315229 5.6698173 19.395065 5.4505813 19.511719 5.25 C 19.569482 5.150169 19.636747 5.0559959 19.710938 4.9667969 C 19.711232 4.9664449 19.710643 4.9651956 19.710938 4.9648438 C 20.009362 4.6066187 20.434841 4.3448656 20.931641 4.2597656 C 20.932964 4.2595317 20.934224 4.2599969 20.935547 4.2597656 C 21.077348 4.2349759 21.216227 4.2231088 21.351562 4.2265625 z "
     style="fill:#ffffff" />
  <path
     d="m 3.907558e-4,37.583 c 0.009200224,0 0.0184004442,0 0.0276006442,0 0.0184005,0.1334 0.0046001,0.2622 0,0.3956 0,0.2254 -0.0046001,0.4508 -0.0138003,0.6716 0,0.2484 -0.00460012,0.4968 -0.0138003442,0.7499 -0.004600116,0.1104 0.0322007442,0.2162 0.0690016442,0.322 0.0276007,0.0874 0.0966026,0.1334 0.1840046,0.161 0.087402,0.0276 0.179404,0.0276 0.271407,0.0276 0.524416,0.0046 1.053426,0.0092 1.577836,0.0092 1.95965,0.0046 3.9193,0.0092 5.88355,0.0138 2.00565,0.0046 4.01131,0.0138 6.01231,0.023 1.9183,0.0092 3.8411,0.0138 5.7594,0.023 0.0598,0 0.1196,0 0.1748,0.0138 -6.6426,0 -13.28975,0 -19.9323092442,0 0,-0.8097 0,-1.6101 0,-2.4105 z"
     fill="#f8fdfc"
     id="path6"
     style="fill:#ffffff" />
  <path
     d="m 18.5894,0.0184 c 0,-0.0046 0,-0.0092 0,-0.0184 0.2806,0 0.5612,0 0.8372,0 0,0.0046 0,0.0092 0,0.0184 -0.2806,0 -0.5612,0 -0.8372,0 z"
     fill="#f8fdfc"
     id="path8"
     style="fill:#ffffff" />
</svg>
