<svg width="68" height="15" viewBox="0 0 68 15" fill="none" xmlns="http://www.w3.org/2000/svg">
<path d="M10.9585 7.68213C10.9585 9.0057 10.7358 10.1623 10.2905 11.1519C9.84521 12.1353 9.21436 12.8867 8.39795 13.4062C7.58154 13.9258 6.62907 14.1855 5.54053 14.1855C4.47673 14.1855 3.53353 13.9258 2.71094 13.4062C1.88835 12.8805 1.24821 12.1353 0.790527 11.1704C0.33903 10.1994 0.107096 9.07682 0.0947266 7.80273V6.82861C0.0947266 5.52979 0.320475 4.38249 0.771973 3.38672C1.22347 2.39095 1.86051 1.63021 2.68311 1.10449C3.51188 0.572591 4.45817 0.306641 5.52197 0.306641C6.60433 0.306641 7.5568 0.569499 8.37939 1.09521C9.20817 1.61475 9.84521 2.3724 10.2905 3.36816C10.7358 4.35775 10.9585 5.51123 10.9585 6.82861V7.68213ZM9.18652 6.81006C9.18652 5.20817 8.86491 3.98047 8.22168 3.12695C7.57845 2.26725 6.67855 1.8374 5.52197 1.8374C4.39632 1.8374 3.50879 2.26725 2.85938 3.12695C2.21615 3.98047 1.88525 5.16797 1.8667 6.68945V7.68213C1.8667 9.23454 2.19141 10.4561 2.84082 11.3467C3.49642 12.2311 4.39632 12.6733 5.54053 12.6733C6.69092 12.6733 7.58154 12.2559 8.2124 11.4209C8.84326 10.5798 9.16797 9.37679 9.18652 7.81201V6.81006ZM14.9849 3.96191L15.0405 5.22363C15.8075 4.25879 16.8094 3.77637 18.0464 3.77637C20.1678 3.77637 21.2378 4.97314 21.2563 7.3667V14H19.54V7.35742C19.5339 6.63379 19.3669 6.0988 19.0391 5.75244C18.7174 5.40609 18.2134 5.23291 17.5269 5.23291C16.9702 5.23291 16.4816 5.38135 16.061 5.67822C15.6405 5.9751 15.3127 6.36475 15.0776 6.84717V14H13.3613V3.96191H14.9849ZM32.8066 7.979C31.279 7.53988 30.1657 7.00179 29.4668 6.36475C28.7741 5.72152 28.4277 4.92985 28.4277 3.98975C28.4277 2.92594 28.8514 2.04769 29.6987 1.35498C30.5522 0.656087 31.6593 0.306641 33.02 0.306641C33.9478 0.306641 34.7734 0.486003 35.4971 0.844727C36.2269 1.20345 36.7897 1.69824 37.1855 2.3291C37.5876 2.95996 37.7886 3.64958 37.7886 4.39795H35.998C35.998 3.58154 35.7383 2.94141 35.2188 2.47754C34.6992 2.00749 33.9663 1.77246 33.02 1.77246C32.1418 1.77246 31.4552 1.96729 30.9604 2.35693C30.4718 2.7404 30.2275 3.27539 30.2275 3.96191C30.2275 4.51237 30.4595 4.97933 30.9233 5.36279C31.3934 5.74007 32.1882 6.08643 33.3076 6.40186C34.4333 6.71729 35.3115 7.06673 35.9424 7.4502C36.5794 7.82747 37.0495 8.26969 37.3525 8.77686C37.6618 9.28402 37.8164 9.88086 37.8164 10.5674C37.8164 11.6621 37.3896 12.5404 36.5361 13.2021C35.6826 13.8577 34.5415 14.1855 33.1128 14.1855C32.1851 14.1855 31.3192 14.0093 30.5151 13.6567C29.7111 13.298 29.0895 12.8094 28.6504 12.1909C28.2174 11.5724 28.001 10.8704 28.001 10.085H29.7915C29.7915 10.9014 30.0915 11.5477 30.6914 12.0239C31.2975 12.494 32.1047 12.729 33.1128 12.729C34.0529 12.729 34.7734 12.5373 35.2744 12.1538C35.7754 11.7703 36.0259 11.2477 36.0259 10.5859C36.0259 9.92415 35.7939 9.4139 35.3301 9.05518C34.8662 8.69027 34.0251 8.33154 32.8066 7.979ZM42.1675 1.53125V3.96191H44.0415V5.28857H42.1675V11.5137C42.1675 11.9157 42.251 12.2188 42.418 12.4229C42.585 12.6208 42.8695 12.7197 43.2715 12.7197C43.4694 12.7197 43.7415 12.6826 44.0879 12.6084V14C43.6364 14.1237 43.1973 14.1855 42.7705 14.1855C42.0036 14.1855 41.4253 13.9536 41.0356 13.4897C40.646 13.0259 40.4512 12.3672 40.4512 11.5137V5.28857H38.6235V3.96191H40.4512V1.53125H42.1675ZM52.252 14C52.153 13.8021 52.0726 13.4495 52.0107 12.9424C51.2129 13.7712 50.2604 14.1855 49.1533 14.1855C48.1637 14.1855 47.3504 13.9072 46.7134 13.3506C46.0825 12.7878 45.7671 12.0765 45.7671 11.2168C45.7671 10.1715 46.1629 9.36133 46.9546 8.78613C47.7524 8.20475 48.8719 7.91406 50.313 7.91406H51.9829V7.12549C51.9829 6.52555 51.8035 6.04932 51.4448 5.69678C51.0861 5.33805 50.5573 5.15869 49.8584 5.15869C49.2461 5.15869 48.7327 5.31331 48.3184 5.62256C47.904 5.9318 47.6968 6.30599 47.6968 6.74512H45.9712C45.9712 6.24414 46.1475 5.76172 46.5 5.29785C46.8587 4.8278 47.3411 4.45671 47.9473 4.18457C48.5596 3.91243 49.2306 3.77637 49.9604 3.77637C51.117 3.77637 52.0231 4.06706 52.6787 4.64844C53.3343 5.22363 53.6745 6.01839 53.6992 7.03271V11.6528C53.6992 12.5744 53.8167 13.3073 54.0518 13.8516V14H52.252ZM49.4038 12.6919C49.9419 12.6919 50.4521 12.5527 50.9346 12.2744C51.417 11.9961 51.7664 11.6343 51.9829 11.189V9.12939H50.6377C48.5348 9.12939 47.4834 9.74479 47.4834 10.9756C47.4834 11.5137 47.6628 11.9342 48.0215 12.2373C48.3802 12.5404 48.841 12.6919 49.4038 12.6919ZM61.2417 5.50195C60.9819 5.45866 60.7005 5.43701 60.3975 5.43701C59.2718 5.43701 58.508 5.91634 58.106 6.875V14H56.3896V3.96191H58.0596L58.0874 5.12158C58.6502 4.22477 59.4481 3.77637 60.481 3.77637C60.8149 3.77637 61.0685 3.81966 61.2417 3.90625V5.50195ZM65.6206 1.53125V3.96191H67.4946V5.28857H65.6206V11.5137C65.6206 11.9157 65.7041 12.2188 65.8711 12.4229C66.0381 12.6208 66.3226 12.7197 66.7246 12.7197C66.9225 12.7197 67.1947 12.6826 67.541 12.6084V14C67.0895 14.1237 66.6504 14.1855 66.2236 14.1855C65.4567 14.1855 64.8784 13.9536 64.4888 13.4897C64.0991 13.0259 63.9043 12.3672 63.9043 11.5137V5.28857H62.0767V3.96191H63.9043V1.53125H65.6206Z" fill="white"/>
</svg>
