<svg width="186" height="110" viewBox="0 0 186 110" fill="none" xmlns="http://www.w3.org/2000/svg">
<rect width="186" height="110" fill="#E5E5E5"/>
<path d="M2 17C27 -5 73 -5 98 17H180C181.061 17 182.078 17.4214 182.828 18.1716C183.579 18.9217 184 19.9391 184 21V61C184 62.0609 183.579 63.0783 182.828 63.8284C182.078 64.5786 181.061 65 180 65H50C48 65 47 66 46 67L42 71C41 72 40 73 38 73H26C24 73 23 72 22 71L18 67C17 66 16 65 14 65H6C4.93913 65 3.92172 64.5786 3.17157 63.8284C2.42143 63.0783 2 62.0609 2 61V17Z" fill="#FFBF00" stroke="#CC9900"/>
<path d="M21.9585 40.6821C21.9585 42.0057 21.7358 43.1623 21.2905 44.1519C20.8452 45.1353 20.2144 45.8867 19.3979 46.4062C18.5815 46.9258 17.6291 47.1855 16.5405 47.1855C15.4767 47.1855 14.5335 46.9258 13.7109 46.4062C12.8883 45.8805 12.2482 45.1353 11.7905 44.1704C11.339 43.1994 11.1071 42.0768 11.0947 40.8027V39.8286C11.0947 38.5298 11.3205 37.3825 11.772 36.3867C12.2235 35.391 12.8605 34.6302 13.6831 34.1045C14.5119 33.5726 15.4582 33.3066 16.522 33.3066C17.6043 33.3066 18.5568 33.5695 19.3794 34.0952C20.2082 34.6147 20.8452 35.3724 21.2905 36.3682C21.7358 37.3577 21.9585 38.5112 21.9585 39.8286V40.6821ZM20.1865 39.8101C20.1865 38.2082 19.8649 36.9805 19.2217 36.127C18.5785 35.2673 17.6785 34.8374 16.522 34.8374C15.3963 34.8374 14.5088 35.2673 13.8594 36.127C13.2161 36.9805 12.8853 38.168 12.8667 39.6895V40.6821C12.8667 42.2345 13.1914 43.4561 13.8408 44.3467C14.4964 45.2311 15.3963 45.6733 16.5405 45.6733C17.6909 45.6733 18.5815 45.2559 19.2124 44.4209C19.8433 43.5798 20.168 42.3768 20.1865 40.812V39.8101ZM25.9849 36.9619L26.0405 38.2236C26.8075 37.2588 27.8094 36.7764 29.0464 36.7764C31.1678 36.7764 32.2378 37.9731 32.2563 40.3667V47H30.54V40.3574C30.5339 39.6338 30.3669 39.0988 30.0391 38.7524C29.7174 38.4061 29.2134 38.2329 28.5269 38.2329C27.9702 38.2329 27.4816 38.3813 27.061 38.6782C26.6405 38.9751 26.3127 39.3647 26.0776 39.8472V47H24.3613V36.9619H25.9849ZM43.8066 40.979C42.279 40.5399 41.1657 40.0018 40.4668 39.3647C39.7741 38.7215 39.4277 37.9299 39.4277 36.9897C39.4277 35.9259 39.8514 35.0477 40.6987 34.355C41.5522 33.6561 42.6593 33.3066 44.02 33.3066C44.9478 33.3066 45.7734 33.486 46.4971 33.8447C47.2269 34.2035 47.7897 34.6982 48.1855 35.3291C48.5876 35.96 48.7886 36.6496 48.7886 37.3979H46.998C46.998 36.5815 46.7383 35.9414 46.2188 35.4775C45.6992 35.0075 44.9663 34.7725 44.02 34.7725C43.1418 34.7725 42.4552 34.9673 41.9604 35.3569C41.4718 35.7404 41.2275 36.2754 41.2275 36.9619C41.2275 37.5124 41.4595 37.9793 41.9233 38.3628C42.3934 38.7401 43.1882 39.0864 44.3076 39.4019C45.4333 39.7173 46.3115 40.0667 46.9424 40.4502C47.5794 40.8275 48.0495 41.2697 48.3525 41.7769C48.6618 42.284 48.8164 42.8809 48.8164 43.5674C48.8164 44.6621 48.3896 45.5404 47.5361 46.2021C46.6826 46.8577 45.5415 47.1855 44.1128 47.1855C43.1851 47.1855 42.3192 47.0093 41.5151 46.6567C40.7111 46.298 40.0895 45.8094 39.6504 45.1909C39.2174 44.5724 39.001 43.8704 39.001 43.085H40.7915C40.7915 43.9014 41.0915 44.5477 41.6914 45.0239C42.2975 45.494 43.1047 45.729 44.1128 45.729C45.0529 45.729 45.7734 45.5373 46.2744 45.1538C46.7754 44.7703 47.0259 44.2477 47.0259 43.5859C47.0259 42.9242 46.7939 42.4139 46.3301 42.0552C45.8662 41.6903 45.0251 41.3315 43.8066 40.979ZM53.1675 34.5312V36.9619H55.0415V38.2886H53.1675V44.5137C53.1675 44.9157 53.251 45.2188 53.418 45.4229C53.585 45.6208 53.8695 45.7197 54.2715 45.7197C54.4694 45.7197 54.7415 45.6826 55.0879 45.6084V47C54.6364 47.1237 54.1973 47.1855 53.7705 47.1855C53.0036 47.1855 52.4253 46.9536 52.0356 46.4897C51.646 46.0259 51.4512 45.3672 51.4512 44.5137V38.2886H49.6235V36.9619H51.4512V34.5312H53.1675ZM63.252 47C63.153 46.8021 63.0726 46.4495 63.0107 45.9424C62.2129 46.7712 61.2604 47.1855 60.1533 47.1855C59.1637 47.1855 58.3504 46.9072 57.7134 46.3506C57.0825 45.7878 56.7671 45.0765 56.7671 44.2168C56.7671 43.1715 57.1629 42.3613 57.9546 41.7861C58.7524 41.2048 59.8719 40.9141 61.313 40.9141H62.9829V40.1255C62.9829 39.5256 62.8035 39.0493 62.4448 38.6968C62.0861 38.3381 61.5573 38.1587 60.8584 38.1587C60.2461 38.1587 59.7327 38.3133 59.3184 38.6226C58.904 38.9318 58.6968 39.306 58.6968 39.7451H56.9712C56.9712 39.2441 57.1475 38.7617 57.5 38.2979C57.8587 37.8278 58.3411 37.4567 58.9473 37.1846C59.5596 36.9124 60.2306 36.7764 60.9604 36.7764C62.117 36.7764 63.0231 37.0671 63.6787 37.6484C64.3343 38.2236 64.6745 39.0184 64.6992 40.0327V44.6528C64.6992 45.5744 64.8167 46.3073 65.0518 46.8516V47H63.252ZM60.4038 45.6919C60.9419 45.6919 61.4521 45.5527 61.9346 45.2744C62.417 44.9961 62.7664 44.6343 62.9829 44.189V42.1294H61.6377C59.5348 42.1294 58.4834 42.7448 58.4834 43.9756C58.4834 44.5137 58.6628 44.9342 59.0215 45.2373C59.3802 45.5404 59.841 45.6919 60.4038 45.6919ZM72.2417 38.502C71.9819 38.4587 71.7005 38.437 71.3975 38.437C70.2718 38.437 69.508 38.9163 69.106 39.875V47H67.3896V36.9619H69.0596L69.0874 38.1216C69.6502 37.2248 70.4481 36.7764 71.481 36.7764C71.8149 36.7764 72.0685 36.8197 72.2417 36.9062V38.502ZM76.6206 34.5312V36.9619H78.4946V38.2886H76.6206V44.5137C76.6206 44.9157 76.7041 45.2188 76.8711 45.4229C77.0381 45.6208 77.3226 45.7197 77.7246 45.7197C77.9225 45.7197 78.1947 45.6826 78.541 45.6084V47C78.0895 47.1237 77.6504 47.1855 77.2236 47.1855C76.4567 47.1855 75.8784 46.9536 75.4888 46.4897C75.0991 46.0259 74.9043 45.3672 74.9043 44.5137V38.2886H73.0767V36.9619H74.9043V34.5312H76.6206Z" fill="white"/>
</svg>
