<svg width="184" height="74" viewBox="0 0 184 74" fill="none" xmlns="http://www.w3.org/2000/svg">
<path d="M1 17C26 -5 72 -5 97 17H179C180.061 17 181.078 17.4214 181.828 18.1716C182.579 18.9217 183 19.9391 183 21V61C183 62.0609 182.579 63.0783 181.828 63.8284C181.078 64.5786 180.061 65 179 65H49C47 65 46 66 45 67L41 71C40 72 39 73 37 73H25C23 73 22 72 21 71L17 67C16 66 15 65 13 65H5C3.93913 65 2.92172 64.5786 2.17157 63.8284C1.42143 63.0783 1 62.0609 1 61V17Z" fill="#FFBF00" stroke="#CC9900"/>
</svg>
